<svg width="466" height="128" viewBox="0 0 466 128" fill="none" xmlns="http://www.w3.org/2000/svg">
<path d="M109.963 50.3999L67.4678 25.8617C66.8957 25.5278 66.1805 25.5278 65.6083 25.8617L45.7613 37.32C45.1415 37.6777 44.3667 37.2246 44.3667 36.5092V13.5926C44.3667 12.9249 44.009 12.3168 43.4369 11.9829L23.1012 0.25039C22.529 -0.0834633 21.8138 -0.0834633 21.2416 0.25039L0.929769 11.971C0.357603 12.3049 0 12.9249 0 13.5807V62.6571C0 63.3248 0.357603 63.9329 0.929769 64.2667L20.7768 75.725C21.3966 76.0827 21.3966 76.977 20.7768 77.3347L0.929769 88.8288C0.357603 89.1626 0 89.7707 0 90.4384V113.904C0 114.571 0.357603 115.179 0.929769 115.513L21.2416 127.246C21.8138 127.58 22.529 127.58 23.1012 127.246L65.5964 102.708C66.1685 102.374 66.5261 101.754 66.5261 101.098V78.1693C66.5261 77.4539 67.3009 77.0008 67.9208 77.3585L87.7678 88.8168C88.3399 89.1507 89.0552 89.1507 89.6273 88.8168L109.951 77.0843C110.523 76.7504 110.881 76.1304 110.881 75.4746V52.0215C110.881 51.3538 110.523 50.7457 109.951 50.4118L109.963 50.3999Z" fill="#F03C32"/>
<path d="M246.687 30.2137C239.499 30.2137 233.598 32.813 228.973 37.9996C228.687 38.3216 228.163 38.1069 228.163 37.6777V32.4434C228.163 32.038 227.841 31.716 227.436 31.716H209.293C208.781 31.716 208.364 32.1334 208.364 32.6461V95.0766C208.364 95.482 208.685 95.8039 209.091 95.8039H227.436C227.841 95.8039 228.163 95.482 228.163 95.0766V61.7747C228.163 53.3092 232.085 49.0764 239.928 49.0764C243.731 49.0764 246.377 49.9945 247.855 51.8188C249.333 53.643 250.072 56.4212 250.072 60.1532V95.0885C250.072 95.4939 250.394 95.8158 250.799 95.8158H268.942C269.454 95.8158 269.871 95.3985 269.871 94.8858V55.7296C269.871 47.8841 267.809 41.672 263.697 37.0815C259.584 32.503 253.91 30.2018 246.687 30.2018V30.2137Z" fill="black"/>
<path d="M322.296 31.728H281.696C281.184 31.728 280.766 32.1453 280.766 32.658V94.8858C280.766 95.3985 281.184 95.8158 281.696 95.8158H299.636C300.148 95.8158 300.566 95.3985 300.566 94.8858V50.8411C300.566 50.5787 300.768 50.376 301.031 50.376H322.284C322.797 50.376 323.214 49.9587 323.214 49.446V32.6699C323.214 32.1572 322.797 31.7399 322.284 31.7399L322.296 31.728Z" fill="black"/>
<path d="M167.013 30.321C157.155 30.321 149.049 33.5284 142.72 39.9312C136.39 46.346 133.219 54.3227 133.219 63.8852C133.219 73.4477 136.402 81.5198 142.767 87.8868C149.133 94.2539 157.369 97.4374 167.466 97.4374C174.928 97.4374 181.543 95.5774 187.325 91.8454C192.701 88.3757 196.479 83.2606 198.673 76.5001C198.863 75.9039 198.41 75.2958 197.779 75.2958H179.338C179.076 75.2958 178.849 75.4389 178.718 75.6774C177.49 77.9428 173.986 82.1756 167.466 82.1756C163.735 82.1756 160.576 80.9952 157.965 78.6224C155.462 76.3451 153.948 73.0065 153.424 68.6068C153.388 68.3326 153.615 68.0822 153.889 68.0822H199.221C199.71 68.0822 200.127 67.7007 200.163 67.2118C200.949 56.9458 198.291 48.2895 192.164 41.219C185.87 33.9577 177.49 30.321 167.001 30.321H167.013ZM179.636 57.0054H153.936C153.686 57.0054 153.495 56.755 153.567 56.5166C155.581 49.5176 160.051 45.4637 166.953 45.4637C176.191 45.4637 179.124 52.9873 179.994 56.5404C180.053 56.7789 179.875 57.0054 179.624 57.0054H179.636Z" fill="black"/>
<path d="M465.004 6.20013H447.064C446.551 6.20013 446.134 6.61745 446.134 7.13015V37.7492C446.134 38.1785 445.598 38.3812 445.324 38.0592C440.901 32.8965 435.084 30.321 427.849 30.321C419.767 30.321 412.96 33.4688 407.406 39.7643C401.851 46.0598 399.073 54.0961 399.073 63.8852C399.073 73.6742 401.827 81.7105 407.346 88.006C412.865 94.3016 419.731 97.4493 427.968 97.4493C435.001 97.4493 440.782 94.9693 445.324 89.9972C445.61 89.6753 446.134 89.8661 446.134 90.3072V95.017C446.134 95.5297 446.551 95.947 447.064 95.947H465.004C465.516 95.947 465.933 95.5297 465.933 95.017V7.13015C465.933 6.61745 465.516 6.20013 465.004 6.20013ZM442.284 74.5446C439.721 77.2274 436.503 78.5628 432.617 78.5628C428.731 78.5628 425.512 77.2274 422.949 74.5446C420.387 71.8619 419.099 68.3087 419.099 63.8852C419.099 59.4616 420.375 56.0038 422.949 53.2853C425.512 50.5668 428.731 49.2076 432.617 49.2076C436.503 49.2076 439.721 50.5668 442.284 53.2853C444.847 56.0038 446.134 59.5451 446.134 63.8852C446.134 68.2253 444.847 71.8619 442.284 74.5446Z" fill="black"/>
<path d="M359.797 30.321C349.939 30.321 341.833 33.5284 335.503 39.9312C329.174 46.346 326.003 54.3227 326.003 63.8852C326.003 73.4477 329.186 81.5198 335.551 87.8868C341.917 94.2539 350.153 97.4374 360.25 97.4374C367.712 97.4374 374.327 95.5774 380.109 91.8454C385.485 88.3757 389.263 83.2606 391.456 76.5001C391.647 75.9039 391.194 75.2958 390.562 75.2958H371.979C371.8 75.2958 371.645 75.3912 371.574 75.5462C370.417 77.7759 366.901 82.1756 360.25 82.1756C356.519 82.1756 353.36 80.9952 350.749 78.6224C348.246 76.3451 346.732 73.0065 346.208 68.6068C346.398 68.3922 346.494 68.2849 346.673 68.0822H392.005C392.494 68.0822 392.911 67.7007 392.946 67.2118C393.733 56.9458 391.075 48.2895 384.948 41.219C378.654 33.9577 370.274 30.321 359.785 30.321H359.797ZM372.301 57.0054H346.84C346.53 57.0054 346.303 56.7074 346.387 56.4093C348.425 49.4818 352.871 45.4637 359.737 45.4637C368.88 45.4637 371.848 52.8442 372.754 56.4331C372.825 56.7312 372.611 57.0174 372.301 57.0174V57.0054Z" fill="black"/>
</svg>
