<svg width="1112" height="453" viewBox="0 0 1112 453" fill="none" xmlns="http://www.w3.org/2000/svg">
<path d="M1044.49 57.117L982.484 92.9356C981.436 93.5442 980.794 94.6598 980.794 95.8599V166.517C980.794 167.818 979.391 168.63 978.258 167.987L851.701 94.8795C850.653 94.271 849.369 94.271 848.321 94.8795L786.319 130.698C785.271 131.307 784.628 132.422 784.628 133.622V206.24C784.628 206.849 784.307 207.406 783.783 207.711L720.209 244.036C719.161 244.628 717.876 244.628 716.828 244.036L590.153 170.455C589.105 169.847 587.82 169.847 586.755 170.455L524.753 206.274C523.705 206.882 523.063 207.998 523.063 209.198V242.092C523.063 243.394 521.66 244.205 520.527 243.563L492.062 227.116C491.014 226.507 489.729 226.507 488.681 227.116L360.451 301.187C359.927 301.491 359.285 301.491 358.761 301.187L295.913 264.878C294.865 264.27 293.581 264.27 292.533 264.878L264.067 281.326C262.934 281.985 261.531 281.156 261.531 279.855V246.961C261.531 245.76 260.889 244.645 259.841 244.036L132.456 170.438C131.408 169.83 130.123 169.83 129.075 170.438L67.0732 206.257C66.0252 206.865 65.3829 207.981 65.3829 209.181V281.799C65.3829 282.407 65.0617 282.965 64.5377 283.269L1.69035 319.561C0.642334 320.17 0 321.285 0 322.486V394.123C0 395.323 0.642334 396.439 1.69035 397.047L63.6925 432.866C64.7405 433.474 66.0252 433.474 67.0732 432.866L226.305 340.877C227.437 340.217 228.84 341.046 228.84 342.347V375.242C228.84 376.442 229.482 377.557 230.53 378.166L357.915 451.764C358.963 452.372 360.248 452.372 361.296 451.764L489.526 377.693C490.05 377.388 490.693 377.388 491.217 377.693L521.373 395.12C522.421 395.729 523.705 395.729 524.753 395.12L586.755 359.302C587.803 358.693 588.446 357.577 588.446 356.377V323.889C588.446 322.587 589.849 321.776 590.981 322.418L717.538 395.12C718.586 395.729 719.871 395.712 720.919 395.12L914.549 283.269C915.073 282.965 915.715 282.965 916.239 283.269L1044.47 357.341C1045.52 357.949 1046.8 357.949 1047.85 357.341L1109.85 321.522C1110.9 320.914 1111.54 319.798 1111.54 318.598V95.8599C1111.54 94.6598 1110.9 93.5442 1109.85 92.9356L1047.85 57.117C1046.8 56.5085 1045.52 56.5085 1044.47 57.117H1044.49Z" fill="#E8E8E8"/>
<path d="M556.633 113.287L684.863 187.359C685.911 187.967 687.196 187.967 688.244 187.359L750.246 151.54C751.294 150.932 751.937 149.816 751.937 148.616V76.9787C751.937 75.7785 751.294 74.6629 750.246 74.0544L622.861 0.456395C621.813 -0.152132 620.528 -0.152132 619.48 0.456395L556.633 36.7652C556.109 37.0695 555.467 37.0695 554.943 36.7652L492.078 0.456395C491.03 -0.152132 489.746 -0.152132 488.698 0.456395L295.913 111.817C294.865 112.425 294.223 113.541 294.223 114.741V186.378C294.223 187.579 294.865 188.694 295.913 189.303L357.915 225.121C358.963 225.73 360.248 225.73 361.296 225.121L554.909 113.271C555.433 112.966 556.075 112.966 556.599 113.271L556.633 113.287Z" fill="#E8E8E8"/>
</svg>
