<svg width="944" height="544" viewBox="0 0 944 544" fill="none" xmlns="http://www.w3.org/2000/svg">
<path d="M1.11656 436.051L124.75 507.387C125.438 507.787 126.29 507.787 126.983 507.387L187.683 472.364C188.371 471.964 189.229 471.964 189.917 472.364L313.55 543.7C314.238 544.1 315.095 544.1 315.783 543.7L565.283 399.738C565.971 399.338 566.829 399.338 567.517 399.738L691.15 471.074C691.844 471.474 692.695 471.474 693.389 471.074L942.878 327.112C943.571 326.712 944 325.974 944 325.18V182.507C944 181.707 943.571 180.97 942.878 180.57L819.255 109.239C818.562 108.839 817.71 108.839 817.017 109.239L756.322 144.257C755.629 144.656 754.777 144.656 754.083 144.257L504.583 0.299927C503.895 -0.0999756 503.038 -0.0999756 502.35 0.299927L315.687 107.944C314.994 108.343 314.571 109.081 314.571 109.881V252.441C314.571 253.235 314.142 253.973 313.454 254.373L252.856 289.503C252.162 289.909 251.305 289.909 250.611 289.509L64.0499 181.859C63.3563 181.465 62.5048 181.465 61.8111 181.859L1.11656 216.883C0.422939 217.283 0 218.02 0 218.82V434.119C0 434.913 0.422939 435.651 1.11656 436.051Z" fill="#E8E8E8"/>
</svg>
