<svg width="84" height="10" viewBox="0 0 84 10" fill="none" xmlns="http://www.w3.org/2000/svg">
<path d="M0 6.63551L6.04878 10L12 6.63551V1.68224L9.07317 0L6.04878 1.68224L3.02439 0L0 1.68224V6.63551Z" fill="#111111"/>
<path d="M18 6.63551L24.0488 10L30 6.63551V1.68224L27.0732 0L24.0488 1.68224L21.0244 0L18 1.68224V6.63551Z" fill="#111111"/>
<path d="M36 6.63551L42.0488 10L48 6.63551V1.68224L45.0732 0L42.0488 1.68224L39.0244 0L36 1.68224V6.63551Z" fill="#111111"/>
<path d="M54 6.63551L60.0488 10L66 6.63551V1.68224L63.0732 0L60.0488 1.68224L57.0244 0L54 1.68224V6.63551Z" fill="#111111"/>
<path d="M77.8057 2.11914L78.0488 2.25391L78.292 2.11914L81.0684 0.574219L83.5 1.97168V6.34277L78.0459 9.42676L72.5 6.34082V1.97559L75.0244 0.571289L77.8057 2.11914Z" stroke="white"/>
</svg>
