<svg width="15" height="15" viewBox="0 0 15 15" fill="none" xmlns="http://www.w3.org/2000/svg">
<path d="M11.34 2.56C10.85 2.56 10.45 2.96 10.45 3.45C10.45 3.94 10.85 4.34 11.34 4.34C11.83 4.34 12.23 3.94 12.23 3.45C12.23 2.96 11.83 2.56 11.34 2.56ZM14.75 4.35C14.74 3.74 14.62 3.13 14.41 2.55C14.22 2.06 13.93 1.61 13.55 1.24C13.18 0.86 12.74 0.57 12.24 0.39C11.67 0.17 11.06 0.06 10.44 0.04C9.66 0 9.4 0 7.39 0C5.38 0 5.13 0 4.34 0.04C3.73 0.05 3.12 0.17 2.54 0.39C2.05 0.57 1.6 0.86 1.23 1.24C0.85 1.61 0.56 2.05 0.38 2.55C0.17 3.13 0.06 3.73 0.04 4.35C0 5.13 0 5.39 0 7.4C0 9.41 0 9.66 0.04 10.45C0.05 11.06 0.17 11.67 0.39 12.25C0.57 12.75 0.86 13.19 1.24 13.56C1.61 13.94 2.05 14.23 2.55 14.41C3.12 14.63 3.73 14.74 4.35 14.76C5.13 14.8 5.39 14.8 7.4 14.8C9.41 14.8 9.66 14.8 10.45 14.76C11.06 14.75 11.67 14.63 12.25 14.41C12.75 14.23 13.19 13.94 13.56 13.56C13.94 13.19 14.23 12.75 14.42 12.25C14.63 11.67 14.75 11.07 14.76 10.45C14.76 9.67 14.8 9.41 14.8 7.4C14.8 5.39 14.8 5.14 14.76 4.35H14.75ZM13.41 10.35C13.41 10.82 13.32 11.28 13.16 11.73C13.04 12.05 12.85 12.34 12.61 12.58C12.37 12.82 12.08 13.01 11.76 13.13C11.32 13.29 10.85 13.38 10.38 13.38C9.64 13.42 9.37 13.42 7.42 13.42C5.47 13.42 5.2 13.42 4.46 13.38C3.97 13.38 3.49 13.31 3.03 13.16C2.72 13.03 2.45 12.84 2.22 12.61C1.97 12.37 1.79 12.08 1.67 11.76C1.49 11.31 1.39 10.84 1.37 10.36C1.37 9.62 1.33 9.35 1.33 7.4C1.33 5.45 1.33 5.18 1.37 4.44C1.37 3.96 1.46 3.48 1.63 3.04C1.76 2.73 1.96 2.45 2.21 2.23C2.43 1.98 2.71 1.77 3.02 1.64C3.47 1.48 3.95 1.39 4.42 1.39C5.16 1.39 5.43 1.35 7.38 1.35C9.33 1.35 9.6 1.35 10.34 1.39C10.81 1.39 11.27 1.48 11.72 1.64C12.06 1.76 12.36 1.97 12.6 2.23C12.84 2.46 13.03 2.73 13.15 3.04C13.31 3.49 13.4 3.97 13.4 4.44C13.44 5.18 13.44 5.45 13.44 7.4C13.44 9.35 13.44 9.62 13.4 10.36L13.41 10.35ZM7.39 3.6C5.29 3.6 3.6 5.31 3.6 7.4C3.6 9.5 5.31 11.19 7.4 11.19C9.49 11.19 11.19 9.49 11.19 7.4C11.19 5.31 9.5 3.61 7.41 3.61C7.41 3.61 7.4 3.61 7.39 3.61V3.6ZM7.39 9.86C6.03 9.86 4.93 8.76 4.93 7.4C4.93 6.04 6.03 4.94 7.39 4.94C8.75 4.94 9.85 6.04 9.85 7.4C9.85 8.76 8.75 9.86 7.39 9.86Z" fill="black"/>
</svg>
