<svg width="176" height="48" viewBox="0 0 176 48" fill="none" xmlns="http://www.w3.org/2000/svg">
<path d="M41.4074 18.9761L25.4045 9.73695C25.1879 9.61293 24.9206 9.61293 24.7022 9.73695L17.2292 14.0517C16.9951 14.1862 16.7034 14.0167 16.7034 13.7477V5.11653C16.7034 4.86673 16.5706 4.6344 16.3523 4.50863L8.69932 0.0943298C8.48271 -0.0314445 8.21545 -0.0314445 7.99884 0.0943298L0.349372 4.50863C0.132762 4.6344 0 4.86673 0 5.11653V23.593C0 23.8428 0.132762 24.0751 0.349372 24.2009L7.8224 28.5139C8.05648 28.6484 8.05648 28.9873 7.8224 29.1218L0.349372 33.4382C0.132762 33.564 0 33.7963 0 34.0461V42.88C0 43.1298 0.132762 43.3621 0.349372 43.4879L7.99884 47.9057C8.21545 48.0314 8.48272 48.0314 8.70107 47.9057L24.7022 38.6683C24.9206 38.5425 25.0534 38.3102 25.0534 38.0604V29.4292C25.0534 29.1585 25.3468 28.9908 25.5809 29.1253L33.0539 33.4382C33.2705 33.564 33.5378 33.564 33.7544 33.4382L41.4074 29.0205C41.624 28.8947 41.7585 28.6641 41.7585 28.4125V19.584C41.7585 19.3324 41.624 19.1018 41.4074 18.9761Z" fill="white"/>
<path d="M92.8927 11.3736C90.1862 11.3736 87.9625 12.3513 86.2215 14.3066C86.1149 14.4254 85.9175 14.3467 85.9175 14.1878V12.2173C85.9175 12.0671 85.7952 11.9431 85.6433 11.9431H78.8096C78.6174 11.9431 78.4602 12.1003 78.4602 12.2942V35.7981C78.4602 35.9501 78.5825 36.0723 78.7327 36.0723H85.6433C85.7952 36.0723 85.9175 35.9501 85.9175 35.7981V23.2627C85.9175 20.0741 87.3942 18.4798 90.3475 18.4798C91.7811 18.4798 92.7757 18.8239 93.3312 19.5122C93.8878 20.1993 94.1662 21.2445 94.1662 22.6478V35.7981C94.1662 35.9501 94.2884 36.0723 94.4387 36.0723H101.272C101.466 36.0723 101.623 35.9151 101.623 35.7212V20.9813C101.623 18.0279 100.848 15.6883 99.2984 13.9624C97.7472 12.2365 95.612 11.3736 92.8927 11.3736Z" fill="white"/>
<path d="M121.365 11.9449H106.078C105.884 11.9449 105.727 12.1021 105.727 12.296V35.723C105.727 35.9169 105.884 36.0741 106.078 36.0741H112.833C113.027 36.0741 113.184 35.9169 113.184 35.723V19.1402C113.184 19.0423 113.263 18.9637 113.359 18.9637H121.365C121.559 18.9637 121.716 18.8065 121.716 18.6126V12.296C121.716 12.1021 121.559 11.9449 121.365 11.9449Z" fill="white"/>
<path d="M67.6454 21.4582H57.9696C57.8735 21.4582 57.8036 21.3656 57.8298 21.273C58.5897 18.6405 60.2702 17.1137 62.8712 17.1137C66.351 17.1137 67.4515 19.9471 67.7834 21.2817C67.8044 21.3708 67.738 21.4582 67.6454 21.4582ZM62.894 11.412C59.179 11.412 56.1301 12.6185 53.7474 15.0315C51.3636 17.4433 50.1716 20.4485 50.1716 24.047C50.1716 27.6735 51.3706 30.6856 53.7684 33.0835C56.1674 35.4825 59.2675 36.6814 63.0686 36.6802C65.8776 36.6802 68.3709 35.9786 70.5487 34.5753C72.5727 33.2698 73.9964 31.3448 74.8197 28.8002C74.8931 28.5766 74.7201 28.346 74.4843 28.346H67.5388C67.441 28.346 67.3537 28.4019 67.3065 28.4875C66.8453 29.3399 65.5265 30.9348 63.0686 30.9348C61.6653 30.9348 60.474 30.4888 59.4946 29.5967C58.5513 28.7384 57.9806 27.4813 57.7827 25.8253C57.7704 25.7205 57.8543 25.6261 57.9591 25.6261H75.0276C75.211 25.6261 75.3665 25.4829 75.3805 25.2995C75.6774 21.4366 74.6736 18.1747 72.3689 15.5136C70.0002 12.7792 66.8418 11.412 62.894 11.412Z" fill="white"/>
<path d="M166.549 28.063C165.585 29.0716 164.371 29.5758 162.907 29.5758C161.445 29.5758 160.232 29.0716 159.266 28.063C158.302 27.0534 157.819 25.7153 157.818 24.0488C157.818 22.4114 158.301 21.0809 159.266 20.0572C160.232 19.0336 161.445 18.5217 162.907 18.5217C164.371 18.5217 165.585 19.0336 166.549 20.0572C167.514 21.082 167.997 22.4126 167.997 24.0488C167.997 25.7153 167.514 27.0534 166.549 28.063ZM175.103 2.33365H168.348C168.154 2.33365 167.997 2.49087 167.997 2.68477V14.2122C167.997 14.373 167.796 14.4516 167.691 14.3293C166.028 12.3845 163.834 11.4126 161.109 11.4138C158.067 11.4138 155.501 12.5982 153.411 14.9669C151.319 17.3379 150.273 20.3652 150.273 24.0488C150.273 27.7335 151.312 30.7608 153.388 33.1307C155.466 35.4994 158.054 36.6838 161.153 36.6838C163.8 36.6838 165.979 35.748 167.69 33.8766C167.8 33.756 167.997 33.8294 167.997 33.9901V35.7614C167.997 35.9553 168.154 36.1125 168.348 36.1125H175.103C175.297 36.1125 175.454 35.9553 175.454 35.7614V2.68477C175.454 2.49087 175.297 2.33365 175.103 2.33365Z" fill="white"/>
<path d="M140.197 21.4582H130.609C130.492 21.4582 130.406 21.3446 130.439 21.2311C131.204 18.6248 132.88 17.1137 135.467 17.1137C138.911 17.1137 140.024 19.8895 140.368 21.2398C140.396 21.3516 140.312 21.4582 140.197 21.4582ZM135.489 11.412C131.774 11.412 128.726 12.6185 126.343 15.0315C123.959 17.4433 122.767 20.4485 122.767 24.047C122.767 27.6735 123.966 30.6856 126.364 33.0835C128.763 35.4825 131.863 36.6814 135.664 36.6802C138.473 36.6802 140.966 35.9786 143.144 34.5753C145.168 33.2698 146.592 31.3448 147.417 28.8002C147.489 28.5766 147.316 28.346 147.08 28.346H140.082C140.017 28.346 139.96 28.3809 139.928 28.4386C139.491 29.2771 138.169 30.9348 135.664 30.9348C134.262 30.9348 133.071 30.4888 132.09 29.5967C131.147 28.7384 130.576 27.4813 130.378 25.8253L130.555 25.6261H147.623C147.806 25.6261 147.962 25.4829 147.976 25.2995C148.273 21.4366 147.27 18.1747 144.966 15.5136C142.597 12.7792 139.438 11.412 135.489 11.412Z" fill="white"/>
</svg>
