<svg width="1446" height="176" viewBox="0 0 1446 176" fill="none" xmlns="http://www.w3.org/2000/svg">
<g clip-path="url(#clip0_23_28)">
<path d="M344.158 176V161.502C344.158 159.435 343.058 157.527 341.264 156.493L209.375 80.3059C207.588 79.2725 205.379 79.2725 203.593 80.3059L142.005 115.88C140.076 116.996 137.671 115.601 137.671 113.376V42.1972C137.671 40.1304 136.57 38.2219 134.776 37.1885L71.7037 0.777026C69.9172 -0.256404 67.716 -0.256404 65.9219 0.777026L2.89468 37.1809C1.10812 38.2144 0 40.1228 0 42.1972V176H344.158Z" fill="#FAFAFA"/>
<path d="M709.966 176C714.233 160.28 725.774 152.412 744.597 152.412C756.41 152.412 764.604 155.248 769.187 160.913C772.202 164.655 774.222 169.686 775.255 176H837.521V173.035C837.521 148.678 831.129 129.382 818.359 115.148C805.581 100.922 787.987 93.8008 765.576 93.8008C743.165 93.8008 724.937 101.865 710.592 117.992C709.718 118.973 708.089 118.316 708.089 117.004V100.763C708.089 99.5186 707.079 98.5003 705.828 98.5003H649.51C647.912 98.5003 646.615 99.7977 646.615 101.397V176H709.966Z" fill="#FAFAFA"/>
<path d="M932.804 176V157.836C932.804 157.036 933.453 156.387 934.252 156.387H1000.23C1001.82 156.387 1003.12 155.09 1003.12 153.491V101.389C1003.12 99.7901 1001.82 98.4927 1000.23 98.4927H874.24C872.642 98.4927 871.345 99.7901 871.345 101.389V175.992H932.804V176Z" fill="#FAFAFA"/>
<path d="M476.583 176C476.545 175.827 476.552 175.638 476.605 175.449C482.869 153.732 496.71 141.135 518.141 141.135C546.824 141.135 555.892 164.504 558.621 175.517C558.659 175.683 558.659 175.849 558.636 176H619.673C616.281 157.964 608.539 141.942 596.425 127.949C576.901 105.402 550.872 94.1252 518.329 94.1252C487.716 94.1252 462.592 104.075 442.947 123.974C428.451 138.661 419.307 156.003 415.515 176.008H476.583V176Z" fill="#FAFAFA"/>
<path d="M1305.31 176C1307.18 172.115 1309.6 168.585 1312.59 165.417C1320.54 156.976 1330.54 152.752 1342.59 152.752C1354.64 152.752 1364.65 156.976 1372.6 165.417C1375.59 168.592 1378.01 172.115 1379.88 176H1446V22.1396C1446 20.5404 1444.7 19.2505 1443.11 19.2505H1387.43C1385.83 19.2505 1384.53 20.5479 1384.53 22.1396V117.215C1384.53 118.543 1382.87 119.184 1382.02 118.173C1368.3 102.151 1350.23 94.1403 1327.77 94.1403C1302.7 94.1403 1281.55 103.909 1264.32 123.446C1251.51 137.967 1243.46 155.49 1240.18 176H1305.31Z" fill="#FAFAFA"/>
<path d="M1075.04 176C1074.94 175.721 1074.92 175.412 1075.01 175.102C1081.32 153.597 1095.13 141.135 1116.44 141.135C1144.83 141.135 1154.01 164.029 1156.84 175.17C1156.92 175.457 1156.89 175.744 1156.8 175.993H1217.98C1214.58 157.957 1206.84 141.935 1194.73 127.942C1175.2 105.395 1149.17 94.1177 1116.63 94.1177C1086.02 94.1177 1060.89 104.067 1041.25 123.966C1026.75 138.653 1017.61 155.995 1013.82 176H1075.05H1075.04Z" fill="#FAFAFA"/>
</g>
<defs>
<clipPath id="clip0_23_28">
<rect width="1446" height="176" fill="white"/>
</clipPath>
</defs>
</svg>
