<svg width="960" height="560" viewBox="0 0 960 560" fill="none" xmlns="http://www.w3.org/2000/svg">
<path d="M9.11656 444.051L132.75 515.387C133.438 515.787 134.29 515.787 134.983 515.387L195.683 480.364C196.371 479.964 197.229 479.964 197.917 480.364L321.55 551.7C322.238 552.1 323.095 552.1 323.783 551.7L573.283 407.738C573.971 407.338 574.829 407.338 575.517 407.738L699.15 479.074C699.844 479.474 700.695 479.474 701.389 479.074L950.878 335.112C951.571 334.712 952 333.974 952 333.18V190.507C952 189.707 951.571 188.97 950.878 188.57L827.255 117.239C826.562 116.839 825.71 116.839 825.017 117.239L764.322 152.257C763.629 152.656 762.777 152.656 762.083 152.257L512.583 8.29993C511.895 7.90002 511.038 7.90002 510.35 8.29993L323.687 115.944C322.994 116.343 322.571 117.081 322.571 117.881V260.441C322.571 261.235 322.142 261.973 321.454 262.373L260.856 297.503C260.162 297.909 259.305 297.909 258.611 297.509L72.0499 189.859C71.3563 189.465 70.5048 189.465 69.8111 189.859L9.11656 224.883C8.42294 225.283 8 226.02 8 226.82V442.119C8 442.913 8.42294 443.651 9.11656 444.051Z" fill="#F03C32"/>
</svg>
