<svg width="713" height="486" viewBox="0 0 713 486" fill="none" xmlns="http://www.w3.org/2000/svg">
<path d="M711.018 204.016L492.098 77.6698C490.897 76.9711 489.41 76.9711 488.208 77.6698L402.007 127.421C401.407 127.765 400.668 127.765 400.067 127.421L180.182 0.523981C178.981 -0.17466 177.493 -0.17466 176.292 0.523981L91.0564 49.7143C89.8548 50.4031 89.1161 51.6921 89.1161 53.0796V204.026C89.1161 204.714 88.7418 205.364 88.141 205.708L1.9403 255.459C0.738694 256.148 0 257.427 0 258.815V432.816C0 434.203 0.738694 435.483 1.9403 436.181L87.1758 485.372C88.3774 486.07 89.8646 486.07 91.0662 485.372L244.114 397.047C244.715 396.703 245.453 396.703 246.054 397.047L309.976 433.938C311.177 434.636 312.665 434.636 313.866 433.938L377.788 397.047C378.389 396.703 379.128 396.703 379.728 397.047L532.776 485.372C533.977 486.07 535.465 486.07 536.666 485.372L621.902 436.181C623.103 435.492 623.842 434.203 623.842 432.816V410.459C623.842 409.771 624.216 409.121 624.817 408.777L711.028 359.026C712.229 358.337 712.968 357.048 712.968 355.66V207.371C712.968 205.984 712.229 204.705 711.028 204.006L711.018 204.016Z" fill="#F03C32"/>
</svg>
